<?xml version="1.0" standalone="no"?>
<svg version="1.0" xmlns="http://www.w3.org/2000/svg"
 width="64" height="64" viewBox="0 0 1024.000000 1024.000000"
 preserveAspectRatio="xMidYMid meet">

<g transform="translate(0.000000,1024.000000) scale(0.100000,-0.100000)"
fill="#2563EB" stroke="none">
<path d="M3915 9275 c-115 -15 -286 -69 -389 -121 -152 -78 -312 -210 -396
-327 -33 -47 -36 -49 -72 -43 -211 34 -460 -5 -653 -102 -144 -71 -313 -214
-401 -338 -58 -81 -119 -212 -145 -309 -28 -106 -30 -309 -5 -404 70 -262 256
-456 516 -539 114 -37 184 -45 320 -39 l129 5 6 -28 c4 -16 7 -100 7 -187 0
-187 7 -224 49 -254 26 -18 40 -21 89 -16 36 3 62 1 69 -6 8 -8 11 -711 11
-2509 l0 -2498 33 -35 c23 -26 44 -37 77 -43 25 -4 339 -5 698 -2 l654 5 29
33 29 32 0 680 0 681 184 202 c101 111 197 215 213 230 l30 28 25 -33 c13 -18
154 -231 313 -473 783 -1194 893 -1355 930 -1370 29 -13 165 -15 898 -15 859
0 864 0 891 21 42 33 43 31 -90 219 -45 63 -187 266 -316 450 -129 184 -324
463 -434 620 -111 157 -222 317 -249 355 -27 39 -107 153 -179 255 -124 177
-225 320 -622 889 l-177 253 16 32 c8 17 66 90 129 162 142 165 467 542 673
784 87 102 174 203 194 225 41 47 22 24 515 600 261 305 376 446 376 463 0 12
-11 34 -25 47 l-24 25 -810 0 c-604 0 -817 -3 -836 -12 -14 -6 -70 -65 -123
-131 -210 -258 -446 -547 -627 -769 -104 -128 -192 -235 -195 -238 -3 -3 -34
-41 -70 -85 -263 -328 -536 -660 -596 -725 -12 -12 -14 119 -14 847 l0 861
183 4 c113 2 190 8 203 15 60 34 69 97 46 313 -8 69 -15 139 -17 155 -1 17 -6
57 -11 90 -14 114 -16 110 41 113 83 4 176 21 258 49 275 90 511 334 584 603
18 68 25 257 11 337 -26 153 -131 344 -243 445 -68 61 -199 134 -300 166 -136
44 -239 56 -371 43 l-107 -11 -61 58 c-141 135 -335 232 -515 258 -20 3 -41 7
-47 9 -37 12 -222 12 -309 0z m353 -215 c193 -46 373 -161 447 -287 33 -56 53
-60 152 -29 155 47 308 31 468 -48 208 -103 325 -293 325 -529 0 -183 -52
-308 -180 -438 -135 -136 -282 -203 -449 -204 l-95 0 -32 125 c-36 139 -64
219 -94 268 -24 39 -81 66 -121 58 -16 -3 -92 -48 -169 -101 -291 -195 -501
-264 -775 -252 -191 9 -330 46 -493 132 -95 51 -136 61 -172 43 -37 -19 -60
-71 -50 -114 13 -56 35 -81 107 -115 38 -18 70 -34 72 -36 7 -5 -29 -52 -71
-94 -88 -85 -224 -158 -337 -179 -91 -17 -228 -12 -311 11 -263 73 -431 274
-447 536 -20 332 236 645 622 760 114 34 278 42 365 18 74 -21 160 -29 176
-18 5 4 26 37 46 73 90 161 270 305 480 383 179 67 359 79 536 37z m416 -1422
c36 -127 106 -608 106 -728 l0 -55 -447 4 c-247 1 -542 -2 -658 -8 -115 -6
-277 -13 -360 -16 -82 -4 -179 -10 -215 -15 -35 -5 -66 -7 -68 -5 -3 2 -1 76
3 164 6 143 9 161 26 166 34 11 164 101 202 141 21 21 59 68 85 102 45 61 48
64 82 58 341 -60 589 -42 852 59 97 38 284 132 326 166 38 30 50 24 66 -33z"/>
</g>
</svg>
