<?xml version="1.0" standalone="no"?>
<!DOCTYPE svg PUBLIC "-//W3C//DTD SVG 20010904//EN"
 "http://www.w3.org/TR/2001/REC-SVG-20010904/DTD/svg10.dtd">
<svg version="1.0" xmlns="http://www.w3.org/2000/svg"
 width="759.000000pt" height="802.000000pt" viewBox="0 0 759.000000 802.000000"
 preserveAspectRatio="xMidYMid meet">

<g transform="translate(0.000000,802.000000) scale(0.100000,-0.100000)"
fill="#2563EB" stroke="none">
<path d="M3357 7886 c-90 -24 -179 -66 -327 -156 -69 -42 -91 -50 -115 -45
-167 34 -353 44 -456 25 -87 -16 -227 -90 -285 -152 -62 -65 -118 -165 -134
-238 -23 -103 -24 -104 -67 -116 -155 -45 -333 -221 -394 -390 -32 -88 -32
-247 1 -329 29 -75 110 -158 195 -200 59 -30 63 -30 215 -30 142 1 161 3 233
28 42 15 82 27 87 27 5 0 16 -13 25 -29 8 -16 41 -63 74 -104 l59 -75 -28
-143 c-79 -402 -105 -586 -129 -899 -23 -303 7 -779 64 -1001 6 -25 4 -26 -57
-39 -169 -33 -283 -81 -397 -165 -157 -116 -284 -288 -365 -495 -20 -52 -41
-105 -46 -117 -5 -12 -21 -24 -38 -28 -36 -8 -90 -59 -110 -105 -9 -21 -15
-63 -15 -107 1 -71 0 -72 -42 -116 -59 -62 -102 -155 -126 -273 -30 -146 -10
-270 57 -344 41 -45 81 -66 146 -75 34 -5 58 -17 82 -40 60 -57 115 -77 199
-74 70 3 75 2 116 -31 41 -34 46 -35 125 -35 75 0 86 3 119 28 45 35 84 99 93
155 6 40 11 45 63 72 106 53 158 131 168 249 3 41 1 89 -6 116 -17 68 -72 148
-136 197 l-55 43 6 61 c8 77 -6 120 -53 169 l-36 37 24 46 c84 156 257 252
457 252 54 0 66 -3 82 -23 147 -178 275 -304 376 -369 93 -60 105 -66 295
-157 91 -44 172 -85 180 -93 8 -7 31 -26 51 -41 66 -49 66 -57 7 -160 -109
-191 -203 -308 -366 -452 l-92 -82 -69 5 c-82 5 -118 -9 -191 -74 -48 -43 -50
-44 -119 -44 -87 0 -272 -35 -322 -60 -51 -26 -103 -108 -137 -215 -26 -84
-28 -101 -27 -260 0 -159 2 -178 32 -290 18 -65 46 -148 62 -183 17 -35 30
-65 30 -67 0 -1 -48 -5 -107 -9 -203 -14 -529 -68 -646 -107 -135 -45 -185
-85 -173 -134 9 -35 53 -62 163 -99 204 -70 539 -118 1048 -150 132 -9 294
-19 360 -23 223 -15 1108 -8 1405 10 511 32 635 44 885 88 199 35 234 43 338
80 91 32 120 49 143 85 16 24 16 27 -3 51 -38 51 -147 94 -342 132 -75 15
-136 32 -139 39 -2 7 2 12 10 12 20 0 256 228 342 329 157 186 261 343 335
504 55 119 75 205 75 317 1 84 -3 102 -27 152 -32 65 -90 121 -156 151 -64 30
-256 36 -372 12 -135 -27 -328 -115 -469 -214 -69 -49 -86 -62 -162 -128 -27
-24 -51 -43 -54 -43 -2 0 -30 39 -61 88 -144 224 -238 359 -317 456 -47 58
-88 116 -92 130 -11 46 70 281 134 384 64 102 297 391 317 391 6 1 56 -17 112
-39 340 -132 726 -109 1058 62 155 80 302 203 379 317 42 63 51 71 79 71 77 1
194 74 217 135 6 16 26 25 86 38 148 32 259 122 328 267 27 57 31 75 31 150
-1 94 -12 135 -58 216 -21 37 -43 60 -72 75 -34 18 -44 30 -53 65 -15 55 -47
92 -96 108 -29 10 -43 23 -60 56 -35 69 -63 84 -165 88 -64 3 -98 0 -125 -12
-21 -9 -42 -16 -46 -16 -4 0 -10 29 -12 65 -10 119 -76 220 -180 275 -150 80
-308 14 -308 -130 0 -40 24 -97 84 -200 34 -59 34 -117 0 -190 -52 -113 -68
-243 -43 -360 11 -51 11 -51 -25 -87 -40 -40 -50 -75 -44 -155 4 -60 4 -60
-94 -135 -147 -110 -297 -163 -468 -163 -90 0 -207 27 -228 53 -7 8 -6 33 4
77 18 84 18 261 0 375 -30 192 -101 484 -206 850 -43 148 -87 306 -152 545
-42 151 -133 511 -163 638 -43 186 -164 304 -296 289 -87 -11 -156 -61 -201
-147 -21 -41 -23 -56 -21 -180 0 -74 11 -211 22 -305 12 -93 24 -227 28 -297
l6 -127 -31 -30 c-17 -17 -40 -31 -51 -31 -34 0 -72 22 -87 52 -23 44 -36 302
-32 638 3 339 3 339 -62 391 -23 18 -57 33 -95 40 -33 7 -65 17 -72 23 -6 6
-14 34 -18 62 l-6 50 43 13 c82 25 210 103 276 169 226 226 189 591 -80 773
-70 48 -132 73 -231 93 -102 21 -185 19 -290 -8z m309 -87 c151 -46 268 -139
321 -256 31 -68 42 -184 24 -260 -17 -71 -77 -163 -141 -218 -52 -44 -194
-121 -234 -127 -37 -6 -26 20 23 57 57 44 88 103 71 135 -18 34 -49 23 -114
-39 -34 -33 -74 -65 -89 -70 -16 -7 -109 -11 -220 -11 -106 0 -223 -5 -262
-11 -102 -16 -111 -16 -106 1 35 137 39 214 14 242 -43 47 -80 8 -93 -98 -19
-153 -54 -227 -149 -322 -70 -70 -175 -138 -259 -168 -70 -25 -221 -30 -320
-9 -92 18 -112 13 -112 -31 0 -34 49 -61 138 -75 72 -12 75 -13 89 -47 8 -20
17 -50 20 -67 5 -30 2 -33 -43 -52 -113 -48 -267 -57 -378 -23 -52 16 -77 32
-119 73 -56 54 -80 105 -92 197 -8 58 34 205 78 275 77 121 195 215 273 215
30 0 32 -2 37 -46 6 -61 27 -82 63 -65 l26 12 -7 94 c-8 114 5 187 49 270 42
81 118 152 208 198 95 47 168 61 288 54 138 -8 233 -31 334 -82 84 -42 91 -44
113 -30 32 21 29 55 -7 90 l-30 29 23 24 c26 29 106 81 163 106 132 58 300 72
420 35z m-167 -888 c30 -16 61 -88 68 -155 l6 -53 -62 -34 c-42 -22 -72 -47
-92 -75 -71 -104 -123 -109 -211 -22 -45 45 -100 63 -193 63 -83 0 -95 -3
-155 -34 -82 -43 -186 -119 -237 -174 -46 -50 -108 -150 -118 -190 l-7 -28
-25 23 c-58 54 -153 257 -139 295 3 7 19 13 37 13 96 0 271 81 374 173 31 27
75 75 100 107 50 65 84 80 221 99 97 14 403 8 433 -8z m252 -291 c66 -18 64
-4 65 -424 1 -498 18 -607 100 -655 78 -47 164 -29 220 45 29 37 29 38 28 173
-1 75 -8 186 -17 246 -9 61 -22 187 -28 281 -12 157 -11 176 5 218 37 96 142
134 231 83 73 -41 96 -91 155 -334 28 -120 58 -238 66 -263 7 -25 31 -110 53
-190 21 -80 55 -201 74 -270 34 -120 52 -182 152 -535 99 -349 143 -565 152
-745 15 -348 -70 -553 -377 -910 -184 -213 -272 -351 -340 -533 l-37 -99 -29
42 c-61 87 -65 91 -93 88 -35 -4 -38 -34 -9 -76 13 -18 59 -85 103 -150 44
-64 114 -159 155 -211 41 -52 102 -136 135 -187 33 -51 97 -150 142 -220 l82
-126 -39 -57 c-22 -31 -67 -94 -100 -141 -70 -97 -81 -127 -55 -146 27 -20 47
-4 109 90 176 264 382 444 638 557 87 38 239 75 330 80 55 3 72 -5 31 -16 -48
-11 -171 -84 -251 -148 -181 -144 -374 -360 -529 -592 -69 -103 -173 -289
-173 -308 0 -4 -12 -32 -26 -62 -35 -78 -64 -197 -64 -267 0 -32 -4 -58 -10
-58 -16 0 -99 119 -139 200 -42 84 -99 227 -161 405 -53 150 -133 362 -228
605 -161 409 -355 709 -549 849 -43 31 -151 88 -263 137 -156 69 -293 168
-433 313 -54 55 -96 105 -93 109 2 4 44 3 92 -2 79 -9 88 -8 100 9 17 23 17
27 1 50 -17 22 -157 37 -362 39 -111 1 -141 -3 -205 -23 -165 -51 -261 -129
-333 -268 -49 -95 -93 -232 -84 -257 4 -9 17 -16 31 -16 20 0 27 8 41 50 19
57 33 62 58 21 36 -61 17 -123 -57 -188 -56 -49 -101 -63 -202 -63 -166 0
-314 63 -371 158 -30 48 -31 124 -3 170 30 49 45 41 56 -30 11 -73 31 -93 64
-63 16 15 19 26 14 49 -19 89 17 222 108 396 126 242 285 382 523 462 81 28
106 31 245 35 85 3 182 0 215 -5 68 -11 105 -2 105 27 0 33 -25 42 -157 57
-70 8 -133 16 -140 19 -16 6 -29 55 -60 235 -26 147 -27 172 -27 495 -1 327 1
349 31 575 53 387 140 805 188 906 26 52 99 144 116 144 14 0 11 -26 -17 -161
-14 -68 -36 -185 -50 -259 -14 -74 -36 -191 -49 -260 -47 -243 -68 -490 -69
-790 0 -281 10 -421 45 -628 21 -125 40 -172 69 -172 37 0 41 31 20 144 -48
262 -54 339 -54 666 0 290 2 331 27 509 30 208 73 441 162 875 37 179 68 217
179 224 79 5 127 -10 162 -51 25 -30 26 -36 21 -112 -3 -44 -15 -125 -26 -180
-40 -204 -73 -585 -57 -669 10 -54 66 -111 121 -125 98 -25 182 28 204 127 5
26 12 108 16 182 24 590 42 789 79 845 37 57 151 82 247 55z m-369 -235 c-1
-28 -7 -102 -12 -165 -5 -63 -15 -234 -20 -380 -6 -146 -15 -280 -21 -297 -19
-58 -71 -78 -128 -48 -49 25 -55 58 -42 213 19 217 40 386 67 541 13 79 24
154 24 165 0 19 6 21 68 21 l67 0 -3 -50z m2775 -1146 c93 -45 143 -141 143
-275 0 -69 -2 -75 -40 -125 -83 -110 -77 -216 14 -280 32 -23 46 -41 50 -64 9
-46 60 -112 101 -132 27 -13 42 -31 61 -72 44 -97 104 -141 193 -141 39 0 59
7 97 33 63 43 116 119 105 150 -14 37 -44 32 -75 -12 -15 -22 -45 -52 -67 -67
-51 -35 -112 -30 -146 13 -33 41 -29 60 20 84 88 45 184 136 234 220 30 51 75
32 119 -51 14 -26 19 -56 19 -120 0 -74 -4 -92 -30 -145 -34 -66 -119 -156
-177 -186 -52 -27 -152 -49 -221 -49 -68 0 -83 -17 -47 -55 13 -14 20 -30 16
-40 -7 -20 -78 -52 -131 -60 -55 -9 -186 34 -264 86 -145 97 -227 243 -173
309 l18 23 54 -41 c30 -23 84 -52 120 -66 55 -21 68 -22 85 -11 35 22 30 44
-12 61 -175 70 -223 140 -223 322 0 86 10 132 47 211 19 40 26 71 27 121 0 63
-3 72 -57 166 -62 110 -69 140 -34 171 54 49 105 55 174 22z m458 -333 c79
-33 70 -90 -30 -190 -81 -82 -141 -116 -204 -116 -109 0 -124 140 -24 231 86
77 183 106 258 75z m167 -156 c26 -27 30 -36 25 -69 -9 -73 -114 -199 -202
-243 -49 -25 -100 -30 -139 -14 -58 24 -77 88 -30 100 69 18 206 128 265 214
17 23 35 42 40 42 6 0 24 -14 41 -30z m-842 -735 c53 -75 178 -160 313 -214
l29 -11 -41 -49 c-143 -171 -358 -308 -568 -362 -43 -11 -136 -27 -206 -36
-108 -14 -144 -15 -232 -5 -130 14 -250 44 -337 84 l-66 30 53 82 c58 89 125
219 145 279 13 42 10 42 90 11 66 -25 235 -30 337 -11 138 26 291 103 406 204
20 18 40 33 45 33 4 0 18 -16 32 -35z m-4487 -1205 c91 -74 215 -114 357 -114
120 -1 172 14 247 71 41 31 48 34 69 23 93 -50 144 -137 144 -244 0 -91 -25
-144 -87 -185 -26 -17 -51 -31 -56 -31 -18 0 1 81 29 121 l27 40 -20 21 c-27
26 -54 13 -87 -45 -38 -67 -48 -114 -35 -174 17 -73 -1 -132 -54 -179 -37 -34
-43 -36 -95 -32 -48 4 -60 10 -83 37 -15 18 -32 54 -39 79 -28 109 -30 112
-60 112 -37 0 -43 -20 -29 -88 13 -65 5 -76 -56 -67 -88 13 -152 81 -166 178
-5 34 -9 65 -9 68 0 14 -32 19 -52 8 -17 -9 -19 -19 -16 -72 4 -73 -8 -81 -63
-44 -52 35 -81 97 -87 182 -5 88 8 153 49 238 27 57 92 147 105 147 3 0 33
-22 67 -50z m2218 -198 c34 -40 114 -171 175 -288 l64 -124 -37 -52 c-119
-170 -349 -400 -500 -501 -156 -104 -219 -111 -291 -33 -21 23 -49 69 -62 102
-20 53 -21 64 -10 109 20 84 52 125 189 244 183 159 294 294 410 500 19 34 37
61 40 61 4 0 14 -8 22 -18z m2195 -433 c85 -22 114 -102 88 -241 -31 -162 -89
-294 -211 -473 -114 -169 -155 -218 -322 -386 -284 -285 -483 -401 -635 -369
-106 22 -127 87 -82 260 64 249 276 589 540 867 146 155 316 280 442 327 77
28 115 31 180 15z m-1899 -113 c12 -18 35 -71 52 -117 17 -46 49 -131 71 -189
62 -157 127 -334 160 -435 48 -149 87 -249 125 -325 20 -40 34 -74 32 -76 -2
-2 -105 0 -228 6 -123 5 -288 10 -367 10 l-142 0 -10 28 c-28 76 -101 162
-191 223 -58 39 -171 83 -247 95 -73 11 -65 43 15 63 105 27 162 76 213 186
16 35 30 69 30 75 0 5 76 85 169 177 92 93 194 201 225 241 31 39 60 72 64 72
4 0 17 -15 29 -34z m-967 -70 c0 -2 -12 -30 -27 -62 -24 -51 -28 -71 -27 -149
1 -105 20 -159 81 -222 69 -73 189 -86 295 -32 55 28 64 20 29 -28 -19 -26
-50 -51 -85 -68 -48 -23 -65 -27 -124 -23 -58 3 -73 8 -109 37 -43 35 -69 37
-87 9 -17 -27 2 -49 71 -83 68 -33 95 -53 88 -65 -2 -4 -30 -10 -62 -13 -58
-5 -154 -33 -222 -65 -41 -19 -53 -59 -26 -82 14 -11 22 -12 48 -1 159 65 157
65 287 65 117 0 130 -2 205 -32 90 -35 163 -91 219 -166 90 -121 69 -202 -69
-253 -69 -26 -76 -26 -376 -31 -360 -5 -448 3 -554 52 -105 49 -157 117 -214
280 -58 163 -77 376 -47 516 18 82 66 187 103 222 22 20 51 31 132 47 57 12
128 21 157 21 l54 0 0 -67 c0 -45 7 -82 19 -109 23 -50 34 -58 62 -44 22 12
22 19 0 108 -26 101 40 210 144 235 29 7 35 7 35 3z"/>
<path d="M4132 5464 c-68 -18 -100 -35 -139 -76 -29 -30 -53 -75 -53 -98 0
-14 30 -40 46 -40 8 0 37 25 65 55 98 105 213 104 321 -2 38 -38 51 -45 72
-39 20 5 26 13 26 35 0 107 -194 202 -338 165z"/>
<path d="M3454 5401 c-60 -15 -124 -53 -158 -94 -41 -50 -85 -154 -93 -219 -5
-44 -4 -48 20 -59 34 -15 55 -6 63 28 28 129 68 203 125 229 58 26 159 15 238
-25 69 -35 102 -39 125 -15 20 20 20 20 -4 60 -43 68 -213 119 -316 95z"/>
<path d="M4132 5154 c-62 -31 -117 -91 -157 -170 -16 -33 -30 -60 -31 -62 -1
-2 -28 24 -60 56 -85 84 -186 112 -297 81 -81 -22 -152 -115 -178 -234 -18
-80 -16 -324 3 -390 l14 -51 -115 3 c-145 4 -214 -15 -219 -60 -5 -38 15 -42
99 -23 120 27 203 18 321 -36 64 -30 156 -117 183 -173 43 -93 28 -236 -38
-354 -40 -73 -158 -191 -223 -224 -58 -29 -77 -49 -72 -74 4 -25 49 -28 90 -7
61 32 149 106 200 170 l51 64 33 -21 c60 -37 91 -49 175 -70 160 -41 347 -15
472 65 123 79 196 219 125 242 -24 7 -48 -17 -48 -49 0 -25 -96 -120 -149
-147 -60 -30 -184 -60 -251 -60 -111 0 -310 74 -310 116 0 8 7 28 15 43 23 46
36 152 27 221 -6 43 -6 63 2 65 6 2 23 6 37 9 42 9 116 84 154 156 l35 65 0
-50 c0 -84 33 -96 115 -42 178 116 331 186 427 194 62 5 68 4 92 -20 85 -85
-59 -272 -265 -344 -60 -21 -93 -26 -179 -27 -98 -1 -105 -2 -108 -22 -5 -35
24 -48 117 -52 164 -8 298 45 422 168 81 80 119 152 119 226 0 85 -62 151
-151 163 l-51 6 -2 160 c-2 151 -4 165 -34 249 -51 143 -92 200 -177 245 -58
31 -146 29 -213 -5z m204 -96 c59 -41 107 -124 130 -226 19 -86 16 -302 -5
-340 -7 -13 -33 -33 -59 -45 -26 -11 -49 -22 -52 -24 -3 -2 -5 41 -6 95 -1
161 -44 276 -123 329 -69 46 -159 43 -190 -8 -27 -44 -32 -22 -11 40 67 189
194 261 316 179z m-571 -107 c55 -25 88 -64 125 -144 52 -111 75 -320 49 -451
-20 -98 -110 -219 -140 -189 -9 9 -7 23 6 55 46 113 21 377 -45 473 -36 52
-111 95 -168 95 -39 0 -87 -23 -101 -47 -17 -29 -14 24 5 87 20 67 40 98 79
121 40 25 136 25 190 0z"/>
<path d="M4817 4314 c-4 -4 -7 -18 -7 -30 0 -31 44 -44 68 -20 13 13 14 20 6
34 -11 18 -55 28 -67 16z"/>
<path d="M3166 4097 c-12 -9 -17 -23 -14 -42 2 -24 8 -31 31 -33 19 -2 33 3
43 15 18 24 17 30 -6 53 -24 24 -30 24 -54 7z"/>
<path d="M4773 4074 c-10 -26 11 -49 43 -49 32 0 44 26 24 50 -17 20 -59 19
-67 -1z"/>
<path d="M3513 4063 c-16 -6 -17 -37 -3 -64 20 -36 70 -17 70 26 0 36 -30 53
-67 38z"/>
<path d="M3380 3860 c-24 -24 -25 -34 -4 -54 30 -30 74 -13 74 29 0 44 -37 58
-70 25z"/>
<path d="M3133 3664 c-12 -31 30 -73 61 -61 11 4 16 18 16 42 0 33 -2 35 -35
35 -24 0 -38 -5 -42 -16z"/>
<path d="M4295 3460 c-9 -15 -94 -56 -135 -65 -19 -5 -73 -9 -120 -9 -84 -1
-85 -1 -85 -26 0 -39 36 -51 145 -48 87 3 102 6 173 41 79 39 112 72 101 101
-7 18 -69 23 -79 6z"/>
</g>
</svg>
